<mxfile host="app.diagrams.net" modified="2023-05-07T09:11:28.717Z" agent="Mozilla/5.0 (Windows NT 10.0; Win64; x64) AppleWebKit/537.36 (KHTML, like Gecko) Chrome/110.0.0.0 YaBrowser/23.3.3.719 Yowser/2.5 Safari/537.36" etag="A3PWAtaU6mWp51JkqiUX" version="21.2.9" type="device">
  <diagram name="Страница 1" id="TNQ2UGbHbQ4-hCMFlbj0">
    <mxGraphModel dx="1049" dy="580" grid="1" gridSize="10" guides="1" tooltips="1" connect="1" arrows="1" fold="1" page="1" pageScale="1" pageWidth="827" pageHeight="1169" math="0" shadow="0">
      <root>
        <mxCell id="0" />
        <mxCell id="1" parent="0" />
        <mxCell id="8tkJ7ZR5Cc0Zda_ak3zG-1" value="Регистрация коллективов" style="rounded=0;whiteSpace=wrap;html=1;fontFamily=Times New Roman;" vertex="1" parent="1">
          <mxGeometry x="10" y="250" width="120" height="60" as="geometry" />
        </mxCell>
        <mxCell id="8tkJ7ZR5Cc0Zda_ak3zG-2" value="Проведение мероприятий" style="rounded=0;whiteSpace=wrap;html=1;fontFamily=Times New Roman;" vertex="1" parent="1">
          <mxGeometry x="260" y="250" width="120" height="60" as="geometry" />
        </mxCell>
        <mxCell id="8tkJ7ZR5Cc0Zda_ak3zG-3" value="Формирование заявки" style="rounded=0;whiteSpace=wrap;html=1;fontFamily=Times New Roman;" vertex="1" parent="1">
          <mxGeometry x="510" y="250" width="120" height="60" as="geometry" />
        </mxCell>
        <mxCell id="8tkJ7ZR5Cc0Zda_ak3zG-4" value="Проверка заявки" style="rounded=0;whiteSpace=wrap;html=1;fontFamily=Times New Roman;" vertex="1" parent="1">
          <mxGeometry x="510" y="330" width="120" height="60" as="geometry" />
        </mxCell>
        <mxCell id="8tkJ7ZR5Cc0Zda_ak3zG-5" value="Начисление рейтинговой стипендии" style="rounded=0;whiteSpace=wrap;html=1;fontFamily=Times New Roman;" vertex="1" parent="1">
          <mxGeometry x="260" y="330" width="120" height="60" as="geometry" />
        </mxCell>
        <mxCell id="8tkJ7ZR5Cc0Zda_ak3zG-8" value="" style="endArrow=classic;html=1;rounded=0;exitX=1;exitY=0.5;exitDx=0;exitDy=0;fontFamily=Times New Roman;" edge="1" parent="1" source="8tkJ7ZR5Cc0Zda_ak3zG-1" target="8tkJ7ZR5Cc0Zda_ak3zG-2">
          <mxGeometry width="50" height="50" relative="1" as="geometry">
            <mxPoint x="130" y="400" as="sourcePoint" />
            <mxPoint x="180" y="350" as="targetPoint" />
          </mxGeometry>
        </mxCell>
        <mxCell id="8tkJ7ZR5Cc0Zda_ak3zG-9" value="" style="endArrow=classic;html=1;rounded=0;exitX=1;exitY=0.5;exitDx=0;exitDy=0;entryX=0;entryY=0.5;entryDx=0;entryDy=0;fontFamily=Times New Roman;" edge="1" parent="1" source="8tkJ7ZR5Cc0Zda_ak3zG-2" target="8tkJ7ZR5Cc0Zda_ak3zG-3">
          <mxGeometry width="50" height="50" relative="1" as="geometry">
            <mxPoint x="140" y="290" as="sourcePoint" />
            <mxPoint x="270" y="290" as="targetPoint" />
          </mxGeometry>
        </mxCell>
        <mxCell id="8tkJ7ZR5Cc0Zda_ak3zG-10" value="" style="endArrow=classic;html=1;rounded=0;entryX=1;entryY=0.5;entryDx=0;entryDy=0;exitX=1;exitY=0.5;exitDx=0;exitDy=0;fontFamily=Times New Roman;" edge="1" parent="1" source="8tkJ7ZR5Cc0Zda_ak3zG-3" target="8tkJ7ZR5Cc0Zda_ak3zG-4">
          <mxGeometry width="50" height="50" relative="1" as="geometry">
            <mxPoint x="690" y="340" as="sourcePoint" />
            <mxPoint x="860" y="360" as="targetPoint" />
            <Array as="points">
              <mxPoint x="700" y="280" />
              <mxPoint x="700" y="360" />
            </Array>
          </mxGeometry>
        </mxCell>
        <mxCell id="8tkJ7ZR5Cc0Zda_ak3zG-11" value="" style="endArrow=classic;html=1;rounded=0;entryX=1;entryY=0.5;entryDx=0;entryDy=0;exitX=0;exitY=0.5;exitDx=0;exitDy=0;fontFamily=Times New Roman;" edge="1" parent="1" source="8tkJ7ZR5Cc0Zda_ak3zG-4" target="8tkJ7ZR5Cc0Zda_ak3zG-5">
          <mxGeometry width="50" height="50" relative="1" as="geometry">
            <mxPoint x="770" y="520" as="sourcePoint" />
            <mxPoint x="770" y="290" as="targetPoint" />
          </mxGeometry>
        </mxCell>
        <mxCell id="8tkJ7ZR5Cc0Zda_ak3zG-13" value="Вовлеченность" style="text;whiteSpace=wrap;html=1;fontFamily=Times New Roman;" vertex="1" parent="1">
          <mxGeometry x="140" y="250" width="120" height="40" as="geometry" />
        </mxCell>
        <mxCell id="8tkJ7ZR5Cc0Zda_ak3zG-14" value="Достижения" style="text;whiteSpace=wrap;html=1;fontFamily=Times New Roman;" vertex="1" parent="1">
          <mxGeometry x="390" y="250" width="100" height="40" as="geometry" />
        </mxCell>
        <mxCell id="8tkJ7ZR5Cc0Zda_ak3zG-15" value="Заявка" style="text;whiteSpace=wrap;html=1;fontFamily=Times New Roman;" vertex="1" parent="1">
          <mxGeometry x="650" y="250" width="70" height="40" as="geometry" />
        </mxCell>
        <mxCell id="8tkJ7ZR5Cc0Zda_ak3zG-16" value="Баллы" style="text;whiteSpace=wrap;html=1;fontFamily=Times New Roman;" vertex="1" parent="1">
          <mxGeometry x="400" y="330" width="70" height="40" as="geometry" />
        </mxCell>
        <mxCell id="8tkJ7ZR5Cc0Zda_ak3zG-19" value="Создание коллективов, набор участников, отслеживание их активности" style="text;whiteSpace=wrap;html=1;fontFamily=Times New Roman;" vertex="1" parent="1">
          <mxGeometry x="10" y="190" width="180" height="40" as="geometry" />
        </mxCell>
        <mxCell id="8tkJ7ZR5Cc0Zda_ak3zG-20" value="Создание мероприятий и их проведение" style="text;whiteSpace=wrap;html=1;fontFamily=Times New Roman;" vertex="1" parent="1">
          <mxGeometry x="260" y="190" width="160" height="40" as="geometry" />
        </mxCell>
        <mxCell id="8tkJ7ZR5Cc0Zda_ak3zG-21" value="Подача заявки на рейтинговую стипендию" style="text;whiteSpace=wrap;html=1;fontFamily=Times New Roman;" vertex="1" parent="1">
          <mxGeometry x="510" y="190" width="200" height="40" as="geometry" />
        </mxCell>
        <mxCell id="8tkJ7ZR5Cc0Zda_ak3zG-22" value="Проверка поданных студентами заявок ответственными за направления" style="text;whiteSpace=wrap;html=1;fontFamily=Times New Roman;" vertex="1" parent="1">
          <mxGeometry x="510" y="400" width="200" height="40" as="geometry" />
        </mxCell>
        <mxCell id="8tkJ7ZR5Cc0Zda_ak3zG-23" value="Обработка полученных заявок" style="text;whiteSpace=wrap;html=1;fontFamily=Times New Roman;" vertex="1" parent="1">
          <mxGeometry x="260" y="400" width="170" height="40" as="geometry" />
        </mxCell>
      </root>
    </mxGraphModel>
  </diagram>
</mxfile>
